<mxfile host="app.diagrams.net" modified="2020-10-10T13:39:28.220Z" agent="5.0 (Windows NT 10.0; Win64; x64) AppleWebKit/537.36 (KHTML, like Gecko) Chrome/85.0.4183.121 Safari/537.36 OPR/71.0.3770.234" etag="Y3VavrrIFBxN2b7U-vn1" version="13.7.9" type="github">
  <diagram id="25p5uAiAintFKi5Fcw_B" name="Page-1">
    <mxGraphModel dx="720" dy="582" grid="1" gridSize="10" guides="1" tooltips="1" connect="1" arrows="1" fold="1" page="1" pageScale="1" pageWidth="827" pageHeight="1169" math="0" shadow="0">
      <root>
        <mxCell id="0" />
        <mxCell id="1" parent="0" />
        <mxCell id="6oPrmo2Hw1seZTQTRMns-1" value="HOSPITAL" style="whiteSpace=wrap;html=1;align=center;" vertex="1" parent="1">
          <mxGeometry x="10" y="190" width="100" height="40" as="geometry" />
        </mxCell>
        <mxCell id="6oPrmo2Hw1seZTQTRMns-4" value="MÉDICO" style="whiteSpace=wrap;html=1;align=center;" vertex="1" parent="1">
          <mxGeometry x="10" y="350" width="100" height="40" as="geometry" />
        </mxCell>
        <mxCell id="6oPrmo2Hw1seZTQTRMns-5" value="PACIENTE" style="whiteSpace=wrap;html=1;align=center;" vertex="1" parent="1">
          <mxGeometry x="250" y="350" width="100" height="40" as="geometry" />
        </mxCell>
        <mxCell id="6oPrmo2Hw1seZTQTRMns-6" value="PLANO DE SAÚDE" style="whiteSpace=wrap;html=1;align=center;" vertex="1" parent="1">
          <mxGeometry x="250" y="190" width="100" height="40" as="geometry" />
        </mxCell>
        <mxCell id="6oPrmo2Hw1seZTQTRMns-8" value="Atende" style="shape=rhombus;perimeter=rhombusPerimeter;whiteSpace=wrap;html=1;align=center;" vertex="1" parent="1">
          <mxGeometry x="140" y="190" width="80" height="40" as="geometry" />
        </mxCell>
        <mxCell id="6oPrmo2Hw1seZTQTRMns-24" value="" style="endArrow=none;html=1;rounded=0;exitX=0.5;exitY=1;exitDx=0;exitDy=0;entryX=0.34;entryY=1.025;entryDx=0;entryDy=0;entryPerimeter=0;" edge="1" parent="1" source="6oPrmo2Hw1seZTQTRMns-64" target="6oPrmo2Hw1seZTQTRMns-1">
          <mxGeometry relative="1" as="geometry">
            <mxPoint x="280" y="290" as="sourcePoint" />
            <mxPoint x="440" y="290" as="targetPoint" />
          </mxGeometry>
        </mxCell>
        <mxCell id="6oPrmo2Hw1seZTQTRMns-25" value="" style="endArrow=none;html=1;rounded=0;exitX=0.5;exitY=1;exitDx=0;exitDy=0;entryX=0.25;entryY=0;entryDx=0;entryDy=0;" edge="1" parent="1" source="6oPrmo2Hw1seZTQTRMns-63" target="6oPrmo2Hw1seZTQTRMns-6">
          <mxGeometry relative="1" as="geometry">
            <mxPoint x="280" y="290" as="sourcePoint" />
            <mxPoint x="440" y="290" as="targetPoint" />
          </mxGeometry>
        </mxCell>
        <mxCell id="6oPrmo2Hw1seZTQTRMns-26" value="" style="endArrow=none;html=1;rounded=0;exitX=0.5;exitY=1;exitDx=0;exitDy=0;entryX=0.75;entryY=0;entryDx=0;entryDy=0;" edge="1" parent="1" source="6oPrmo2Hw1seZTQTRMns-115" target="6oPrmo2Hw1seZTQTRMns-6">
          <mxGeometry relative="1" as="geometry">
            <mxPoint x="280" y="290" as="sourcePoint" />
            <mxPoint x="440" y="290" as="targetPoint" />
          </mxGeometry>
        </mxCell>
        <mxCell id="6oPrmo2Hw1seZTQTRMns-29" value="" style="endArrow=none;html=1;rounded=0;exitX=1;exitY=0.5;exitDx=0;exitDy=0;entryX=0;entryY=0.5;entryDx=0;entryDy=0;" edge="1" parent="1" source="6oPrmo2Hw1seZTQTRMns-1" target="6oPrmo2Hw1seZTQTRMns-8">
          <mxGeometry relative="1" as="geometry">
            <mxPoint x="280" y="290" as="sourcePoint" />
            <mxPoint x="440" y="290" as="targetPoint" />
          </mxGeometry>
        </mxCell>
        <mxCell id="6oPrmo2Hw1seZTQTRMns-30" value="1:N" style="resizable=0;html=1;align=right;verticalAlign=bottom;" connectable="0" vertex="1" parent="6oPrmo2Hw1seZTQTRMns-29">
          <mxGeometry x="1" relative="1" as="geometry">
            <mxPoint x="-10" as="offset" />
          </mxGeometry>
        </mxCell>
        <mxCell id="6oPrmo2Hw1seZTQTRMns-31" value="" style="endArrow=none;html=1;rounded=0;exitX=1;exitY=0.5;exitDx=0;exitDy=0;entryX=0;entryY=0.5;entryDx=0;entryDy=0;" edge="1" parent="1" source="6oPrmo2Hw1seZTQTRMns-8" target="6oPrmo2Hw1seZTQTRMns-6">
          <mxGeometry relative="1" as="geometry">
            <mxPoint x="280" y="290" as="sourcePoint" />
            <mxPoint x="440" y="290" as="targetPoint" />
          </mxGeometry>
        </mxCell>
        <mxCell id="6oPrmo2Hw1seZTQTRMns-32" value="0:N" style="resizable=0;html=1;align=right;verticalAlign=bottom;" connectable="0" vertex="1" parent="6oPrmo2Hw1seZTQTRMns-31">
          <mxGeometry x="1" relative="1" as="geometry">
            <mxPoint as="offset" />
          </mxGeometry>
        </mxCell>
        <mxCell id="6oPrmo2Hw1seZTQTRMns-33" value="Atende" style="shape=rhombus;perimeter=rhombusPerimeter;whiteSpace=wrap;html=1;align=center;" vertex="1" parent="1">
          <mxGeometry x="140" y="350" width="80" height="40" as="geometry" />
        </mxCell>
        <mxCell id="6oPrmo2Hw1seZTQTRMns-35" value="Especialidade" style="ellipse;whiteSpace=wrap;html=1;align=center;" vertex="1" parent="1">
          <mxGeometry x="20" y="410" width="80" height="30" as="geometry" />
        </mxCell>
        <mxCell id="6oPrmo2Hw1seZTQTRMns-36" value="Nome" style="ellipse;whiteSpace=wrap;html=1;align=center;" vertex="1" parent="1">
          <mxGeometry x="10" y="300" width="50" height="30" as="geometry" />
        </mxCell>
        <mxCell id="6oPrmo2Hw1seZTQTRMns-37" value="" style="endArrow=none;html=1;rounded=0;exitX=0.5;exitY=1;exitDx=0;exitDy=0;entryX=0.25;entryY=0;entryDx=0;entryDy=0;" edge="1" parent="1" source="6oPrmo2Hw1seZTQTRMns-36" target="6oPrmo2Hw1seZTQTRMns-4">
          <mxGeometry relative="1" as="geometry">
            <mxPoint x="280" y="220" as="sourcePoint" />
            <mxPoint x="440" y="220" as="targetPoint" />
          </mxGeometry>
        </mxCell>
        <mxCell id="6oPrmo2Hw1seZTQTRMns-38" value="" style="endArrow=none;html=1;rounded=0;exitX=0.5;exitY=1;exitDx=0;exitDy=0;entryX=0.75;entryY=0;entryDx=0;entryDy=0;" edge="1" parent="1" source="6oPrmo2Hw1seZTQTRMns-66" target="6oPrmo2Hw1seZTQTRMns-4">
          <mxGeometry relative="1" as="geometry">
            <mxPoint x="280" y="220" as="sourcePoint" />
            <mxPoint x="440" y="220" as="targetPoint" />
          </mxGeometry>
        </mxCell>
        <mxCell id="6oPrmo2Hw1seZTQTRMns-39" value="" style="endArrow=none;html=1;rounded=0;exitX=0.5;exitY=1;exitDx=0;exitDy=0;entryX=0.5;entryY=0;entryDx=0;entryDy=0;" edge="1" parent="1" source="6oPrmo2Hw1seZTQTRMns-4" target="6oPrmo2Hw1seZTQTRMns-35">
          <mxGeometry relative="1" as="geometry">
            <mxPoint x="280" y="220" as="sourcePoint" />
            <mxPoint x="440" y="220" as="targetPoint" />
          </mxGeometry>
        </mxCell>
        <mxCell id="6oPrmo2Hw1seZTQTRMns-42" value="Data" style="ellipse;whiteSpace=wrap;html=1;align=center;" vertex="1" parent="1">
          <mxGeometry x="155" y="410" width="50" height="25" as="geometry" />
        </mxCell>
        <mxCell id="6oPrmo2Hw1seZTQTRMns-43" value="Hora" style="ellipse;whiteSpace=wrap;html=1;align=center;" vertex="1" parent="1">
          <mxGeometry x="155" y="302.5" width="50" height="25" as="geometry" />
        </mxCell>
        <mxCell id="6oPrmo2Hw1seZTQTRMns-44" value="" style="endArrow=none;html=1;rounded=0;exitX=0.5;exitY=1;exitDx=0;exitDy=0;entryX=0.5;entryY=0;entryDx=0;entryDy=0;" edge="1" parent="1" source="6oPrmo2Hw1seZTQTRMns-43" target="6oPrmo2Hw1seZTQTRMns-33">
          <mxGeometry relative="1" as="geometry">
            <mxPoint x="280" y="330" as="sourcePoint" />
            <mxPoint x="440" y="330" as="targetPoint" />
          </mxGeometry>
        </mxCell>
        <mxCell id="6oPrmo2Hw1seZTQTRMns-45" value="" style="endArrow=none;html=1;rounded=0;exitX=0.5;exitY=0;exitDx=0;exitDy=0;entryX=0.5;entryY=1;entryDx=0;entryDy=0;" edge="1" parent="1" source="6oPrmo2Hw1seZTQTRMns-42" target="6oPrmo2Hw1seZTQTRMns-33">
          <mxGeometry relative="1" as="geometry">
            <mxPoint x="280" y="330" as="sourcePoint" />
            <mxPoint x="440" y="330" as="targetPoint" />
          </mxGeometry>
        </mxCell>
        <mxCell id="6oPrmo2Hw1seZTQTRMns-46" value="" style="endArrow=none;html=1;rounded=0;exitX=1;exitY=0.5;exitDx=0;exitDy=0;entryX=0;entryY=0.5;entryDx=0;entryDy=0;" edge="1" parent="1" source="6oPrmo2Hw1seZTQTRMns-4" target="6oPrmo2Hw1seZTQTRMns-33">
          <mxGeometry relative="1" as="geometry">
            <mxPoint x="280" y="330" as="sourcePoint" />
            <mxPoint x="440" y="330" as="targetPoint" />
          </mxGeometry>
        </mxCell>
        <mxCell id="6oPrmo2Hw1seZTQTRMns-47" value="1:N" style="resizable=0;html=1;align=right;verticalAlign=bottom;" connectable="0" vertex="1" parent="6oPrmo2Hw1seZTQTRMns-46">
          <mxGeometry x="1" relative="1" as="geometry">
            <mxPoint x="-10" as="offset" />
          </mxGeometry>
        </mxCell>
        <mxCell id="6oPrmo2Hw1seZTQTRMns-48" value="" style="endArrow=none;html=1;rounded=0;exitX=1;exitY=0.5;exitDx=0;exitDy=0;entryX=0;entryY=0.5;entryDx=0;entryDy=0;" edge="1" parent="1" source="6oPrmo2Hw1seZTQTRMns-33" target="6oPrmo2Hw1seZTQTRMns-5">
          <mxGeometry relative="1" as="geometry">
            <mxPoint x="280" y="330" as="sourcePoint" />
            <mxPoint x="440" y="330" as="targetPoint" />
          </mxGeometry>
        </mxCell>
        <mxCell id="6oPrmo2Hw1seZTQTRMns-49" value="0:N" style="resizable=0;html=1;align=right;verticalAlign=bottom;" connectable="0" vertex="1" parent="6oPrmo2Hw1seZTQTRMns-48">
          <mxGeometry x="1" relative="1" as="geometry" />
        </mxCell>
        <mxCell id="6oPrmo2Hw1seZTQTRMns-51" value="Nome" style="ellipse;whiteSpace=wrap;html=1;align=center;" vertex="1" parent="1">
          <mxGeometry x="300" y="410" width="50" height="30" as="geometry" />
        </mxCell>
        <mxCell id="6oPrmo2Hw1seZTQTRMns-52" value="" style="endArrow=none;html=1;rounded=0;exitX=0.5;exitY=0;exitDx=0;exitDy=0;" edge="1" parent="1" source="6oPrmo2Hw1seZTQTRMns-65">
          <mxGeometry relative="1" as="geometry">
            <mxPoint x="270" y="410" as="sourcePoint" />
            <mxPoint x="270" y="390" as="targetPoint" />
          </mxGeometry>
        </mxCell>
        <mxCell id="6oPrmo2Hw1seZTQTRMns-53" value="" style="endArrow=none;html=1;rounded=0;" edge="1" parent="1">
          <mxGeometry relative="1" as="geometry">
            <mxPoint x="325" y="390" as="sourcePoint" />
            <mxPoint x="325" y="410" as="targetPoint" />
          </mxGeometry>
        </mxCell>
        <mxCell id="6oPrmo2Hw1seZTQTRMns-54" value="Possui" style="shape=rhombus;perimeter=rhombusPerimeter;whiteSpace=wrap;html=1;align=center;" vertex="1" parent="1">
          <mxGeometry x="257.5" y="270" width="85" height="40" as="geometry" />
        </mxCell>
        <mxCell id="6oPrmo2Hw1seZTQTRMns-56" value="" style="endArrow=none;html=1;rounded=0;exitX=0.5;exitY=1;exitDx=0;exitDy=0;entryX=0.5;entryY=0;entryDx=0;entryDy=0;" edge="1" parent="1" source="6oPrmo2Hw1seZTQTRMns-6" target="6oPrmo2Hw1seZTQTRMns-54">
          <mxGeometry relative="1" as="geometry">
            <mxPoint x="280" y="520" as="sourcePoint" />
            <mxPoint x="440" y="520" as="targetPoint" />
          </mxGeometry>
        </mxCell>
        <mxCell id="6oPrmo2Hw1seZTQTRMns-57" value="0:N" style="resizable=0;html=1;align=right;verticalAlign=bottom;" connectable="0" vertex="1" parent="6oPrmo2Hw1seZTQTRMns-56">
          <mxGeometry x="1" relative="1" as="geometry">
            <mxPoint x="20" y="-20" as="offset" />
          </mxGeometry>
        </mxCell>
        <mxCell id="6oPrmo2Hw1seZTQTRMns-58" value="" style="endArrow=none;html=1;rounded=0;exitX=0.5;exitY=1;exitDx=0;exitDy=0;entryX=0.5;entryY=0;entryDx=0;entryDy=0;" edge="1" parent="1" source="6oPrmo2Hw1seZTQTRMns-54" target="6oPrmo2Hw1seZTQTRMns-5">
          <mxGeometry relative="1" as="geometry">
            <mxPoint x="280" y="480" as="sourcePoint" />
            <mxPoint x="440" y="480" as="targetPoint" />
          </mxGeometry>
        </mxCell>
        <mxCell id="6oPrmo2Hw1seZTQTRMns-59" value="0:1" style="resizable=0;html=1;align=right;verticalAlign=bottom;" connectable="0" vertex="1" parent="6oPrmo2Hw1seZTQTRMns-58">
          <mxGeometry x="1" relative="1" as="geometry">
            <mxPoint x="20" as="offset" />
          </mxGeometry>
        </mxCell>
        <mxCell id="6oPrmo2Hw1seZTQTRMns-63" value="Nome" style="ellipse;whiteSpace=wrap;html=1;align=center;fontStyle=4;" vertex="1" parent="1">
          <mxGeometry x="250" y="140" width="50" height="30" as="geometry" />
        </mxCell>
        <mxCell id="6oPrmo2Hw1seZTQTRMns-64" value="CNPJ" style="ellipse;whiteSpace=wrap;html=1;align=center;fontStyle=4;" vertex="1" parent="1">
          <mxGeometry x="10" y="240" width="50" height="30" as="geometry" />
        </mxCell>
        <mxCell id="6oPrmo2Hw1seZTQTRMns-65" value="CPF" style="ellipse;whiteSpace=wrap;html=1;align=center;fontStyle=4;" vertex="1" parent="1">
          <mxGeometry x="250" y="407.5" width="40" height="32.5" as="geometry" />
        </mxCell>
        <mxCell id="6oPrmo2Hw1seZTQTRMns-66" value="CRM" style="ellipse;whiteSpace=wrap;html=1;align=center;fontStyle=4;" vertex="1" parent="1">
          <mxGeometry x="60" y="300" width="50" height="30" as="geometry" />
        </mxCell>
        <mxCell id="6oPrmo2Hw1seZTQTRMns-90" value="ALA" style="whiteSpace=wrap;html=1;align=center;" vertex="1" parent="1">
          <mxGeometry x="10" y="50" width="100" height="40" as="geometry" />
        </mxCell>
        <mxCell id="6oPrmo2Hw1seZTQTRMns-91" value="ENFERMEIRA" style="whiteSpace=wrap;html=1;align=center;" vertex="1" parent="1">
          <mxGeometry x="250" y="50" width="100" height="40" as="geometry" />
        </mxCell>
        <mxCell id="6oPrmo2Hw1seZTQTRMns-92" value="" style="endArrow=none;html=1;rounded=0;exitX=0.5;exitY=1;exitDx=0;exitDy=0;entryX=0.5;entryY=0;entryDx=0;entryDy=0;" edge="1" parent="1" source="6oPrmo2Hw1seZTQTRMns-94" target="6oPrmo2Hw1seZTQTRMns-90">
          <mxGeometry relative="1" as="geometry">
            <mxPoint x="280" y="-20" as="sourcePoint" />
            <mxPoint x="440" y="-20" as="targetPoint" />
          </mxGeometry>
        </mxCell>
        <mxCell id="6oPrmo2Hw1seZTQTRMns-93" value="Atende" style="shape=rhombus;perimeter=rhombusPerimeter;whiteSpace=wrap;html=1;align=center;" vertex="1" parent="1">
          <mxGeometry x="140" y="50" width="80" height="40" as="geometry" />
        </mxCell>
        <mxCell id="6oPrmo2Hw1seZTQTRMns-94" value="Identificador" style="ellipse;whiteSpace=wrap;html=1;align=center;fontStyle=4;" vertex="1" parent="1">
          <mxGeometry x="20" width="80" height="30" as="geometry" />
        </mxCell>
        <mxCell id="6oPrmo2Hw1seZTQTRMns-95" value="CRE" style="ellipse;whiteSpace=wrap;html=1;align=center;fontStyle=4;" vertex="1" parent="1">
          <mxGeometry x="300" width="50" height="30" as="geometry" />
        </mxCell>
        <mxCell id="6oPrmo2Hw1seZTQTRMns-96" value="Nome" style="ellipse;whiteSpace=wrap;html=1;align=center;" vertex="1" parent="1">
          <mxGeometry x="250" width="50" height="30" as="geometry" />
        </mxCell>
        <mxCell id="6oPrmo2Hw1seZTQTRMns-97" value="" style="endArrow=none;html=1;rounded=0;entryX=0.25;entryY=0;entryDx=0;entryDy=0;exitX=0.5;exitY=1;exitDx=0;exitDy=0;" edge="1" parent="1" source="6oPrmo2Hw1seZTQTRMns-96" target="6oPrmo2Hw1seZTQTRMns-91">
          <mxGeometry relative="1" as="geometry">
            <mxPoint x="280" y="-20" as="sourcePoint" />
            <mxPoint x="440" y="-20" as="targetPoint" />
          </mxGeometry>
        </mxCell>
        <mxCell id="6oPrmo2Hw1seZTQTRMns-98" value="" style="endArrow=none;html=1;rounded=0;exitX=0.5;exitY=1;exitDx=0;exitDy=0;entryX=0.75;entryY=0;entryDx=0;entryDy=0;" edge="1" parent="1" source="6oPrmo2Hw1seZTQTRMns-95" target="6oPrmo2Hw1seZTQTRMns-91">
          <mxGeometry relative="1" as="geometry">
            <mxPoint x="280" y="-20" as="sourcePoint" />
            <mxPoint x="440" y="-20" as="targetPoint" />
          </mxGeometry>
        </mxCell>
        <mxCell id="6oPrmo2Hw1seZTQTRMns-99" value="" style="endArrow=none;html=1;rounded=0;entryX=0;entryY=0.5;entryDx=0;entryDy=0;exitX=1;exitY=0.5;exitDx=0;exitDy=0;" edge="1" parent="1" source="6oPrmo2Hw1seZTQTRMns-90" target="6oPrmo2Hw1seZTQTRMns-93">
          <mxGeometry relative="1" as="geometry">
            <mxPoint x="120" y="60" as="sourcePoint" />
            <mxPoint x="510" y="-1" as="targetPoint" />
          </mxGeometry>
        </mxCell>
        <mxCell id="6oPrmo2Hw1seZTQTRMns-100" value="1:1" style="resizable=0;html=1;align=right;verticalAlign=bottom;" connectable="0" vertex="1" parent="6oPrmo2Hw1seZTQTRMns-99">
          <mxGeometry x="1" relative="1" as="geometry">
            <mxPoint x="-10" as="offset" />
          </mxGeometry>
        </mxCell>
        <mxCell id="6oPrmo2Hw1seZTQTRMns-101" value="" style="endArrow=none;html=1;rounded=0;exitX=1;exitY=0.5;exitDx=0;exitDy=0;entryX=0;entryY=0.5;entryDx=0;entryDy=0;" edge="1" parent="1" source="6oPrmo2Hw1seZTQTRMns-93" target="6oPrmo2Hw1seZTQTRMns-91">
          <mxGeometry relative="1" as="geometry">
            <mxPoint x="240" y="-110" as="sourcePoint" />
            <mxPoint x="400" y="-110" as="targetPoint" />
          </mxGeometry>
        </mxCell>
        <mxCell id="6oPrmo2Hw1seZTQTRMns-102" value="0:1" style="resizable=0;html=1;align=right;verticalAlign=bottom;" connectable="0" vertex="1" parent="6oPrmo2Hw1seZTQTRMns-101">
          <mxGeometry x="1" relative="1" as="geometry" />
        </mxCell>
        <mxCell id="6oPrmo2Hw1seZTQTRMns-103" value="EnfChefe" style="shape=rhombus;perimeter=rhombusPerimeter;whiteSpace=wrap;html=1;align=center;" vertex="1" parent="1">
          <mxGeometry x="360" y="90" width="80" height="40" as="geometry" />
        </mxCell>
        <mxCell id="6oPrmo2Hw1seZTQTRMns-104" value="" style="endArrow=none;html=1;rounded=0;entryX=0.5;entryY=0;entryDx=0;entryDy=0;exitX=1;exitY=0.5;exitDx=0;exitDy=0;" edge="1" parent="1" source="6oPrmo2Hw1seZTQTRMns-91" target="6oPrmo2Hw1seZTQTRMns-103">
          <mxGeometry relative="1" as="geometry">
            <mxPoint x="240" y="-120" as="sourcePoint" />
            <mxPoint x="400" y="-120" as="targetPoint" />
            <Array as="points">
              <mxPoint x="400" y="70" />
            </Array>
          </mxGeometry>
        </mxCell>
        <mxCell id="6oPrmo2Hw1seZTQTRMns-105" value="0:N" style="resizable=0;html=1;align=right;verticalAlign=bottom;" connectable="0" vertex="1" parent="6oPrmo2Hw1seZTQTRMns-104">
          <mxGeometry x="1" relative="1" as="geometry">
            <mxPoint x="20" as="offset" />
          </mxGeometry>
        </mxCell>
        <mxCell id="6oPrmo2Hw1seZTQTRMns-106" value="" style="endArrow=none;html=1;rounded=0;entryX=0;entryY=0.5;entryDx=0;entryDy=0;exitX=0.5;exitY=1;exitDx=0;exitDy=0;" edge="1" parent="1" source="6oPrmo2Hw1seZTQTRMns-91" target="6oPrmo2Hw1seZTQTRMns-103">
          <mxGeometry relative="1" as="geometry">
            <mxPoint x="300" y="110" as="sourcePoint" />
            <mxPoint x="400" y="-120" as="targetPoint" />
            <Array as="points">
              <mxPoint x="300" y="110" />
            </Array>
          </mxGeometry>
        </mxCell>
        <mxCell id="6oPrmo2Hw1seZTQTRMns-107" value="1:1" style="resizable=0;html=1;align=right;verticalAlign=bottom;" connectable="0" vertex="1" parent="6oPrmo2Hw1seZTQTRMns-106">
          <mxGeometry x="1" relative="1" as="geometry">
            <mxPoint y="20" as="offset" />
          </mxGeometry>
        </mxCell>
        <mxCell id="6oPrmo2Hw1seZTQTRMns-108" value="Possui" style="shape=rhombus;perimeter=rhombusPerimeter;whiteSpace=wrap;html=1;align=center;" vertex="1" parent="1">
          <mxGeometry x="15" y="120" width="90" height="40" as="geometry" />
        </mxCell>
        <mxCell id="6oPrmo2Hw1seZTQTRMns-109" value="" style="endArrow=none;html=1;rounded=0;entryX=0.5;entryY=1;entryDx=0;entryDy=0;exitX=0.5;exitY=0;exitDx=0;exitDy=0;" edge="1" parent="1">
          <mxGeometry relative="1" as="geometry">
            <mxPoint x="60" y="120" as="sourcePoint" />
            <mxPoint x="60" y="90" as="targetPoint" />
          </mxGeometry>
        </mxCell>
        <mxCell id="6oPrmo2Hw1seZTQTRMns-110" value="N:N" style="resizable=0;html=1;align=right;verticalAlign=bottom;" connectable="0" vertex="1" parent="6oPrmo2Hw1seZTQTRMns-109">
          <mxGeometry x="1" relative="1" as="geometry">
            <mxPoint x="25" y="20" as="offset" />
          </mxGeometry>
        </mxCell>
        <mxCell id="6oPrmo2Hw1seZTQTRMns-111" value="" style="endArrow=none;html=1;rounded=0;exitX=0.5;exitY=1;exitDx=0;exitDy=0;entryX=0.5;entryY=0;entryDx=0;entryDy=0;" edge="1" parent="1" source="6oPrmo2Hw1seZTQTRMns-108" target="6oPrmo2Hw1seZTQTRMns-1">
          <mxGeometry relative="1" as="geometry">
            <mxPoint x="430" y="230" as="sourcePoint" />
            <mxPoint x="590" y="230" as="targetPoint" />
          </mxGeometry>
        </mxCell>
        <mxCell id="6oPrmo2Hw1seZTQTRMns-112" value="1:1" style="resizable=0;html=1;align=right;verticalAlign=bottom;" connectable="0" vertex="1" parent="6oPrmo2Hw1seZTQTRMns-111">
          <mxGeometry x="1" relative="1" as="geometry">
            <mxPoint x="20" as="offset" />
          </mxGeometry>
        </mxCell>
        <mxCell id="6oPrmo2Hw1seZTQTRMns-113" value="CRM" style="ellipse;whiteSpace=wrap;html=1;align=center;fontStyle=4;" vertex="1" parent="1">
          <mxGeometry x="375" y="190" width="50" height="30" as="geometry" />
        </mxCell>
        <mxCell id="6oPrmo2Hw1seZTQTRMns-114" value="" style="endArrow=none;html=1;rounded=0;entryX=0;entryY=0.5;entryDx=0;entryDy=0;exitX=1;exitY=0.5;exitDx=0;exitDy=0;" edge="1" parent="1" source="6oPrmo2Hw1seZTQTRMns-6" target="6oPrmo2Hw1seZTQTRMns-113">
          <mxGeometry relative="1" as="geometry">
            <mxPoint x="130" y="220" as="sourcePoint" />
            <mxPoint x="290" y="220" as="targetPoint" />
          </mxGeometry>
        </mxCell>
        <mxCell id="6oPrmo2Hw1seZTQTRMns-115" value="Telefone" style="ellipse;shape=doubleEllipse;margin=3;whiteSpace=wrap;html=1;align=center;" vertex="1" parent="1">
          <mxGeometry x="310" y="140" width="60" height="30" as="geometry" />
        </mxCell>
      </root>
    </mxGraphModel>
  </diagram>
</mxfile>
